<?xml version="1.0" encoding="utf-8"?>
<!-- Generator: Adobe Illustrator 22.1.0, SVG Export Plug-In . SVG Version: 6.00 Build 0)  -->
<svg version="1.1" id="Layer_1" xmlns="http://www.w3.org/2000/svg" xmlns:xlink="http://www.w3.org/1999/xlink" x="0px" y="0px"
	 viewBox="0 0 1008 1008" style="enable-background:new 0 0 1008 1008;" xml:space="preserve">
<style type="text/css">
	.st0{clip-path:url(#SVGID_2_);fill:#F5F2ED;}
	.st1{clip-path:url(#SVGID_4_);}
	.st2{fill:#EBE8E4;}
	.st3{fill:none;stroke:#EBE8E4;stroke-width:3.0187;stroke-linecap:round;stroke-miterlimit:10;}
	.st4{clip-path:url(#SVGID_6_);fill:#FAF7F2;}
	.st5{clip-path:url(#SVGID_8_);}
	.st6{fill:#EFECE7;}
	.st7{fill:none;stroke:#EFECE7;stroke-width:2.7819;stroke-linecap:round;stroke-miterlimit:10;}
	.st8{clip-path:url(#SVGID_10_);}
	.st9{fill:none;stroke:#EBE8E4;stroke-width:3.2617;stroke-miterlimit:10;}
	.st10{fill:none;stroke:#F5F2ED;stroke-width:3.5531;stroke-miterlimit:10;}
	.st11{fill:#F5F2ED;}
	.st12{clip-path:url(#SVGID_12_);fill:#F5F2ED;}
	.st13{fill:none;}
	.st14{fill:none;stroke:#5A6175;stroke-width:35.4051;stroke-miterlimit:10;}
	.st15{fill:none;stroke:#FAF7F2;stroke-width:35.405;stroke-miterlimit:10;}
	.st16{fill:#5A6175;}
	.st17{fill:none;stroke:#4B5161;stroke-width:35.4051;stroke-miterlimit:10;}
	.st18{fill:#4B5161;}
	.st19{fill:none;stroke:#FACA78;stroke-width:36.1098;stroke-linecap:round;stroke-linejoin:round;stroke-miterlimit:10;}
	.st20{fill:none;stroke:#52B6DE;stroke-width:36.1919;stroke-miterlimit:10;}
	.st21{fill:none;stroke:#72C7E8;stroke-width:36.1919;stroke-miterlimit:10;}
	.st22{fill:#72C7E8;}
	.st23{fill:#52B6DE;}
	.st24{fill:#FACA78;}
	.st25{fill:#FCF5EB;}
	.st26{fill:#524D57;}
	.st27{fill:none;stroke:#F5A571;stroke-width:30.3363;stroke-linecap:round;stroke-linejoin:round;stroke-miterlimit:10;}
	.st28{fill:none;stroke:#524D57;stroke-width:7.2807;stroke-linecap:round;stroke-linejoin:round;stroke-miterlimit:10;}
</style>
<g id="Bkg">
</g>
<g id="Art">
</g>
<g id="Layer_5">
</g>
<g>
	<g>
		<defs>
			<rect id="SVGID_1_" x="59.4" y="179.9" width="906.8" height="693.2"/>
		</defs>
		<clipPath id="SVGID_2_">
			<use xlink:href="#SVGID_1_"  style="overflow:visible;"/>
		</clipPath>
		<path class="st0" d="M897.1,799.1c3-3.6,4.8-8.3,3.7-12.9c-1-4.4-4.1-7.8-7.6-10.5c-3.6-2.7-7.9-4.4-12.5-3.9
			c3.8-8.5,4.9-17.9,1.1-26.8c-2.8-6.6-8.4-12.3-14.7-15.7c-6.5-3.5-14-4.5-21.2-3c-4.4,0.9-8.7,2.6-12.5,5c0-4.6-1.4-8.9-4.4-11.5
			c-3.9-3.5-10.6-3.5-15.4,0.6c4.8-9.8,9.9-20.6,7.9-30.1c-1.8-9.1-10.4-14.6-19.5-13.4c-9.1,1.3-18.2,8.7-23,17.9
			c1.8-8.5,0.8-17.5-4.1-23c-4.9-5.5-14.1-6.7-21-1.4c4.4-4.8,4.8-13,0.7-16.4c-4.1-3.5-11.6-1.5-15.3,4c4.6-8.5,4.2-18.8-0.4-25.4
			c-2.9-4.2-7.3-6.9-12.2-7.9c-3.6-0.8-7.6,1.3-9.5,2.5c-1.8-5.7-6.1-10.5-11.8-12.8c-9.6-3.9-20.1,3-23.6,12
			c-1,2.6-1.3,5.3-0.8,7.9c-1.9-0.9-4.2-1.5-6.3-1.6c-10.7-2.8-22.8,5.9-22.9,17.7c-0.1,13.3,15.4,21,27.2,20.9c2.8,0,5.6-0.5,8-1.6
			c1.3,0.5,2.6,0.9,3.7,1.3v-0.2c36.4,23,75.7,41.7,113.6,62.3c-0.4,1.1-0.3,2.4,0.7,3.4c8.2,9.1,18,16.4,27.6,23.8
			c4.7,3.7,9.2,7.5,13.7,11.4c2.2,1.9,4.5,3.8,6.9,5.4c2.1,1.5,4.3,2.6,6.5,3.9c2.1,1.3,4.3,2.7,6.5,4.1c1,1.7,2.3,3.2,3.9,4.5
			c2.3,1.9,5.1,2.9,8,3.3c3.7,2.5,9.2,3.1,12.2,0.1c0.2,1.2,0.3,2.5,0.1,3.9c-0.2,1.6,1,3.2,2.5,3.7
			C894.5,801.1,896,800.4,897.1,799.1z"/>
	</g>
	<g>
		<defs>
			<rect id="SVGID_3_" x="59.4" y="179.9" width="906.8" height="693.2"/>
		</defs>
		<clipPath id="SVGID_4_">
			<use xlink:href="#SVGID_3_"  style="overflow:visible;"/>
		</clipPath>
		<g class="st1">
			<path class="st2" d="M882.6,699.1c5-1.4,9.4-5.4,11.3-10.2c0.7-1.9,0.9-3.8,1-5.8c3.6-1.9,6.8-4.4,9.6-7.4
				c5.5-5.9,7.9-14.5,5.4-22.2c-2.2-6.7-7.9-11.9-14-15.1c-2.4-1.3-5.2-2.1-8-2.5c-1.4-5.5-5.3-9.8-10.5-12
				c-5.8-2.5-12.7-2.2-17.5,2.1c-1.8-0.8-3.7-1.3-5.6-1.6c-5.4-0.8-11.4,0.3-16.2,2.8c-5.2,2.8-9.8,7.1-11.7,12.8
				c-0.4,1.2-0.7,2.3-0.8,3.5c-1.3,0.9-2.4,2-3.3,3.2c-3.3,4.2-4.7,10.1-3.2,15.3c1.5,5.1,6,8.7,10.9,10c0.4,0.1,0.8,0.2,1.2,0.3
				c-0.7,0.4-1.3,0.7-1.9,1.1c-2.7,1.9-4.7,4.5-4.9,7.9c-0.2,3.6,1.3,7.2,4.1,9.5c2.1,1.8,4.7,2,7.1,1.4c0,0.4,0.1,0.9,0.1,1.3
				c0.1,0.6,0.2,1.1,0.3,1.7c0.4,2.3,1,4.5,2.2,6.5c2.3,3.8,6.4,7.1,10.7,8.4c1.9,0.6,4.1,0.9,6.2,0.8c0.7,0,1.4-0.1,2.2-0.2
				c6.8-0.5,11.9-6.1,12.2-12.5C873.3,700.2,878.3,700.3,882.6,699.1z"/>
			<g>
				<path class="st2" d="M863.7,668.6l-46.6,66.9c-0.9,1.3-2.6,1.6-3.9,0.7c-1.3-0.9-1.6-2.6-0.7-3.9c0,0,0,0,0-0.1l48.4-65.6
					c0.5-0.7,1.6-0.9,2.3-0.3C864.1,666.9,864.2,667.8,863.7,668.6z"/>
			</g>
			<path class="st3" d="M848.1,687.9c2.7,1.6,6.8,3.3,11.5-1.3"/>
			<path class="st3" d="M852.3,680.5c-1.7-1.5-6.3-6-3.3-12.8"/>
		</g>
	</g>
	<g>
		<defs>
			<rect id="SVGID_5_" x="59.4" y="179.9" width="906.8" height="693.2"/>
		</defs>
		<clipPath id="SVGID_6_">
			<use xlink:href="#SVGID_5_"  style="overflow:visible;"/>
		</clipPath>
		<path class="st4" d="M495.2,604.2c0-1.6,0-3.2-0.1-4.8c-0.2-2.6-0.7-5.1-1.6-7.5c-1.9-5.4-5.5-9.8-11.6-11.4
			c-4.4-1.1-9.2-0.5-13.2,1.7c-4.1,2.3-7.2,6.2-9.6,10.1c-0.5,0.7-0.9,1.5-1.4,2.3c-4.1-14.5-17.2-26.7-32.3-27.9
			c-9.6-0.7-19.2,3.9-25.3,11.3c-1.9-6.5-5.9-12.6-12.1-15.6c-7.7-3.8-16.9-1.5-24.3,1.9c-8.6,4.1-18.2,11.9-21.6,21.2
			c-3.8,8.4-4,18.8,1.4,26.3c-4.6-1.2-9.6,2-11.5,6.3s-1.4,9.4,0.1,13.9c-6.4-10.1-16.5-19.4-28.5-19.3c-9.7,0.1-18.8,7.1-22.1,16.2
			c-3.3,9.1-1,19.9,5.2,27.4c-3.5-1.3-7.4-2.3-10.8-0.8c-3.4,1.4-5.4,6.3-2.8,9c-6.6-5-14-10.2-22.3-10.2c-7.8,0-15.2,5.1-18.3,12.3
			c-2.6,6-2.1,12.5,0.4,18.2c-4.4-1.3-9.1-1.9-13.7-1.8c-11.2,0.3-21.4,5.7-27.9,14.7c-6.1,8.4-8,18.8-6.7,28.9
			c-1.9,1-3.8,2.3-5.4,4c-6.4,6.3-8.8,15.9-6.9,24.5c1.1,4.9,4.1,9.7,8,12.8c2.1,1.6,4.9,2.4,7.4,1.6c4,1.9,8.6,1.7,12.6-0.4
			c4-2.2,6.7-6,8.4-10.1c4.8,2.3,10.1,3.2,15.2,1.5c3.6-1.2,6.2-5.1,4.9-8.9c-0.1-0.4-0.3-0.7-0.5-1.1c5.4-3.2,9-9.5,10-15.6
			c0-0.2,0.1-0.4,0.1-0.6c1.8-0.9,3.5-2.1,4.9-3.8c0.9-1.1,1.6-2.2,2.2-3.4c2-0.6,3.8-1.7,5.4-3.2c0.7-0.2,1.4-0.4,2-0.9
			c0.6-0.4,1.2-0.9,1.7-1.5c0.2-0.1,0.4-0.3,0.6-0.4c14.5-1.7,28.6-6.8,42.5-11.1c13.4-4,27.1-6,40.8-8.3c7.2-1.2,14.3-2.6,21.3-4.5
			c8-2.2,15.8-5.2,23.5-8.3c14.2-5.8,28.2-12.4,41.6-19.8c7.5-4.1,14.8-8.5,22-13.1c4.7-3,9.6-5.9,14-9.4c2-1.5,3.8-3.2,5.4-5.1
			c3.9,1.8,8.6,2,12.7,0.9c0.1,0,0.3-0.1,0.4-0.1c2.1,0.2,4.3-0.3,5.8-1.8c0.8,0.3,1.7,0.4,2.6,0.4c0.1,0,0.2,0,0.3,0
			c1.2,1.8,3.4,3.1,5.5,3.3c2.2,0.2,4.9-0.7,6.3-2.5c0.1,0,0.2,0,0.3,0c0.5,0,1,0,1.5-0.1c0.3,0.1,0.6,0.2,0.8,0.2
			c3,0.6,6.7-0.6,8-3.6c1.6-3.6,2.7-7.4,3.5-11.3c1-4.8,1.6-9.9,0.5-14.8c-1.3-5.8-6.1-9.9-12.1-9.8
			C499.8,602.4,497.4,603.1,495.2,604.2z"/>
	</g>
	<g>
		<defs>
			<rect id="SVGID_7_" x="59.4" y="179.9" width="906.8" height="693.2"/>
		</defs>
		<clipPath id="SVGID_8_">
			<use xlink:href="#SVGID_7_"  style="overflow:visible;"/>
		</clipPath>
		<g class="st5">
			<path class="st6" d="M321.1,583.9c-1.7-2.3-4.2-4-7-4.4c-1.6-0.2-3.2-0.1-4.6,0.5c0-0.5-0.1-1-0.2-1.4c-0.1-1.4-0.6-2.7-1.1-3.8
				c-0.3-0.5-0.6-1.1-1-1.5c-3.7-4.2-10.1-4.4-15-3.1c-0.7,0.2-1.3,0.4-2,0.7c-3.2,1.4-6,3.7-7.6,6.9c-0.3,0.6-0.6,1.3-0.8,2
				c-0.4,1.2-0.7,2.4-0.9,3.7c-0.7-0.5-1.4-1-2.2-1.3c-2.2-0.9-4.7-0.8-6.9-0.2c-4.4,1.3-7.6,5.6-7.9,10.2c-0.1,1.3,0,2.5,0.3,3.8
				c-0.6,0-1.2,0.1-1.9,0.2c-5.4,1.1-10,5-11.3,10.6c-1.3,5.8-0.7,13.3,4.8,16.7c1,0.5,2.1,0.7,3.2,0.7c-0.7,2.1-0.9,4.5-0.4,6.7
				c0.1,0.4,0.2,0.9,0.3,1.3c2.1,6.9,11.3,9,17.5,6.7c-1.2,1.7-1.6,4-1.6,5.9c-0.1,3,0.8,6,3.1,8c2.5,2.1,6.1,3,9.3,2.2
				c2.5-0.6,4.1-2.3,4.9-4.5c0.3,0.2,0.7,0.4,1.1,0.6c0.5,0.3,0.9,0.5,1.4,0.7c1.9,1,3.9,1.7,6.1,1.9c4.1,0.4,8.8-0.9,12.1-3.3
				c1.5-1.1,2.9-2.6,4-4.2c0.4-0.5,0.7-1.1,1-1.7c3.9-6.2,1.4-14.6-5.4-17.5c-0.5-0.3-1.1-0.6-1.6-0.8c-0.5-0.3-1.1-0.5-1.6-0.7
				c0.5,0,1.1,0,1.6-0.1c6.9-1.3,9.9-11.1,8-17.2c-0.2-0.5-0.4-1.1-0.6-1.6c-0.9-2.1-2.2-4-3.6-5.8c4.7-0.5,8.1-4.5,8.5-8.9
				c0-0.2,0.1-0.5,0.1-0.7C323.3,588.6,322.7,586.1,321.1,583.9z M268.3,588c-0.1,0.1-0.3,0.3-0.4,0.5c0.5-0.8,1.1-1.6,1.8-2.2
				C269.2,586.8,268.7,587.4,268.3,588z"/>
			<g>
				<path class="st6" d="M290.1,616.5l24.1,71.1c0.5,1.3-0.3,2.8-1.6,3.3c-1.3,0.5-2.8-0.3-3.3-1.6v-0.1l-22.1-71.8
					c-0.2-0.8,0.2-1.6,1-1.9C289,615.3,289.8,615.8,290.1,616.5z"/>
			</g>
			<path class="st7" d="M295.9,638.7c2.7-1.1,6.2-3.2,5.3-9.3"/>
			<path class="st7" d="M292.7,631.5c-2,0.4-7.9,1.4-11.3-4.6"/>
		</g>
	</g>
	<g>
		<defs>
			<rect id="SVGID_9_" x="59.4" y="179.9" width="906.8" height="693.2"/>
		</defs>
		<clipPath id="SVGID_10_">
			<use xlink:href="#SVGID_9_"  style="overflow:visible;"/>
		</clipPath>
		<g class="st8">
			<g>
				<path class="st9" d="M205.7,678.4c4.8-2.7,14-8.5,5.2-23"/>
				<path class="st9" d="M187.8,674.1c0,0,7.5,10.6,19,8.1"/>
				<path class="st2" d="M198.7,670.5l27.4,46.7c0.4,0.9,1.5,1.3,2.4,0.8l5.4-2.8c0.9-0.5,1.2-1.6,0.7-2.4l-34-44.8L198.7,670.5z"/>
				<path class="st2" d="M184.3,682.7l35.4-21.1c1.1-0.7,2.2-1.6,2.3-2c0.7-2.1,1.1-5.8,1.2-6.4c0.8-5.3,2.1-13,0.4-22.1
					c-1.3-6.5-4.1-14.6-11.2-21.8c-7.5-7.8-21.3-14.1-39.2-8.2c-17.9,5.9-29.6,20.5-31.7,35.3c-2,14.2,5.4,23.4,10.7,29.4
					c4.7,5.3,9.4,8.8,13.4,11.3c5.9,3.6,11.5,5.2,15.5,6.3c0.1,0,0.4,0.1,0.7,0.2C182.2,683.7,183.3,683.3,184.3,682.7z"/>
			</g>
			<path class="st10" d="M247,656.2c5.3-2.9,15.2-9.2,5.7-25"/>
			<path class="st10" d="M224.6,643.4c0,0,8.2,11.5,20.7,8.8"/>
			<path class="st11" d="M236.7,637.7l24.3,59.6c0.4,1,1.6,1.5,2.6,1.1l6.1-2.7c1-0.4,1.4-1.6,0.9-2.6l-31.6-58L236.7,637.7z"/>
			<path class="st11" d="M211.4,655.5l58.3-24.3c1.8-0.9,3.2-2.4,3.1-3.4c-0.4-4.7-2.5-13-2.8-14.1c-2.4-10.5-5.1-23.8-12.8-38.1
				c-4.7-8.8-11.3-18.3-21.2-26.1c-8.9-7-21.4-12.2-35-8.8c-12.8,3.2-22.4,12.9-26.5,25c-4.7,13.9-1.1,26.9,2.1,37.3
				c3.3,10.7,7.5,19.5,11.7,26.8c7,12.1,11.8,17.9,17.9,24.7c0.2,0.2,0.6,0.7,1.1,1.2C207.9,656.4,209.7,656.3,211.4,655.5z"/>
		</g>
	</g>
	<g>
		<defs>
			<rect id="SVGID_11_" x="59.4" y="179.9" width="906.8" height="693.2"/>
		</defs>
		<clipPath id="SVGID_12_">
			<use xlink:href="#SVGID_11_"  style="overflow:visible;"/>
		</clipPath>
		<path class="st12" d="M286.8,677.4c0.4-1.1,0.4-2.5-1.1-2.6c-1.3-0.1-2.8,1-3.8,1.7c-2.6,1.7-4.8,3.8-6.8,6.1
			c1.4-3.6,2.6-7.3,3.4-11.1c0.2-1,0.6-2.5-0.5-3.3c-1.3-0.9-2.4,0.4-3.1,1.4c-2,2.8-3.3,6-4.2,9.3c-0.5,1.8-0.9,3.6-1.3,5.5
			L269,678c-0.1-1.8-0.1-3.8-0.6-5.5c-0.3-1.1-1.3-3.1-2.8-2.5c-1.4,0.6-1.5,3.3-1.5,4.5c0,2,0.3,3.9,0.6,5.9
			c0.7,3.9,1.8,7.7,3.4,11.3c0,0.1,0.1,0.1,0.1,0.2c0.1,0.4,0.4,0.6,0.8,0.6l0,0c0.2,0.4,0.7,0.6,1.2,0.4c0.2,0.3,0.5,0.4,0.9,0.3
			h0.1c2,0,3.9-0.3,5.9-0.7c1.4-0.1,2.9-0.4,4.2-0.9c1.6-0.6,5-2,3.8-4.4c-0.5-1-1.5-1-2.4-0.8c-1.4,0.2-2.7,0.6-4.1,1
			c-0.4,0.1-0.7,0.2-1.1,0.3c0.9-0.8,1.8-1.6,2.7-2.4C282.6,683.1,285.7,680.6,286.8,677.4z M277,669.7c0.1,0,0.1,0.1,0.1,0.3
			c0,0,0,0-0.1,0s-0.1,0-0.2,0C277,669.8,277,669.7,277,669.7z M272.2,689.8c0-0.1,0.1-0.2,0.1-0.2c0.1,0,0.1,0,0.2-0.1
			C272.4,689.6,272.3,689.7,272.2,689.8z"/>
	</g>
	<rect x="59.4" y="179.9" class="st13" width="906.8" height="693.2"/>
	<g>
		<path class="st11" d="M952.1,873.1C859.1,727.8,696.3,631.5,511,631.5c-185.3,0-348,96.3-441,241.6H952.1z"/>
	</g>
	<g>
		<ellipse class="st2" cx="514.5" cy="754.5" rx="185.1" ry="24.7"/>
		<path class="st14" d="M374.1,734.5c54.1-44.9,96.4-141.2,78.1-203"/>
		<path class="st15" d="M374.1,734.5c12.4-10.3,24.2-23.3,34.8-38"/>
		<path class="st16" d="M418.6,752.4h-32.8c-3.5,0-6.8-1.4-9.2-4l-11.1-11.8c-5.6-6-4.6-14.7,1.2-20.6c9.9-9.9,9.3-8.1,14.8-2.5
			l7,7.4c2.4,2.5,5.7,4,9.2,4h21.7c4.7,0,9.1,2.6,11.2,6.8C435.9,742.1,428.4,752.4,418.6,752.4z"/>
		<path class="st17" d="M486.3,526.4c30.6,33.8,111.3,131.9,163.6,170"/>
		<path class="st15" d="M614.8,666.5c12.5,11.8,24.4,22.2,35.1,30"/>
		<path class="st18" d="M642.9,711.1c-3.9,0-8.1-2.7-11.2-5.5c-3-2.7-7.7-6.6-7.7-6.6l39-37.2c5.8-5,14.4-4.3,19.4,1.4
			c5,5.8,4.3,14.4-1.4,19.4l-29.1,25.2C649.3,710,646.1,711.1,642.9,711.1z"/>
		<path class="st19" d="M506.4,465.5c6.6,24.1,30,42,54.9,44.2c6.2,0.6,12.5,0.2,18.6-1c18.3-3.5,35.3-14.1,46.9-28.9"/>
		<path class="st20" d="M506.4,465.5c6.6,24.1,30,42,54.9,44.2c6.2,0.6,12.5,0.2,18.6-1c8.7-1.7,17.2-4.9,24.9-9.5"/>
		<path class="st19" d="M411.8,474.1c-37.2,17.3-51.1,42.8-54.4,61.6c-7.1,39.9,15.1,73.9,15.1,73.9"/>
		<path class="st21" d="M411.8,474.1c-37.2,17.3-51.1,42.8-54.4,61.6c-2.8,15.9-1,30.9,2.2,43.1"/>
		<path class="st22" d="M519,385.6l-124.7,12.3c0.2,0.9,0.3,1.8,0.4,2.7l6.2,91.1c3.6,36.5,36.4,63.4,72.9,59.8l0,0
			c36.5-3.6,63.4-36.4,59.8-72.9l-14.2-90C519.1,387.6,519,386.6,519,385.6z"/>
		<g>
			<circle class="st23" cx="504.8" cy="454.7" r="8"/>
			<circle class="st23" cx="507.9" cy="476.3" r="8"/>
		</g>
		<g>
			<path class="st24" d="M514.1,434.1L514.1,434.1c55.7-9.5,46.7-46,42-91.4l0,0c-2.6-25.4-5.4-45-15.6-58.3
				c-5.4-7-13-12.3-23.8-15.7c7.3-8.6,11.4-23,1.6-29.9c-13.1-10.1-46.8,3.2-46.8,3.2s-2.5-34.6-30.6-49.2
				c-8.7-4.5-29.7-11-45.6,0.9c-29.7,22.2,3.5,59.6,3.5,59.6c-13.8-4.7-29.4-4.2-42.8,1.5c-5.4,2.3-10.6,5.5-14,10.3
				s-4.6,11.4-1.9,16.6c2.1,4,6,6.6,10,8.7c2.5,1.3,5.2,2.5,8,3.5c-7.1,7.4-10.8,16.4-12.3,27.1c-1.7,12-0.7,26.3,1,43l0,0
				c4.8,45.8,4.1,84,61.1,81L514.1,434.1z"/>
			<g>
				<circle class="st25" cx="507.7" cy="311.5" r="21.2"/>
				<circle class="st25" cx="469.4" cy="315.3" r="21.2"/>
				<circle class="st26" cx="514.1" cy="310.2" r="10.6"/>
				<circle class="st26" cx="477" cy="312.8" r="10.6"/>
				<polygon class="st24" points="539.6,315.3 430.7,323.4 451.1,389.4 549.1,383.8 				"/>
				<g>
					<path class="st27" d="M450.5,343.4c0,0,38.9,31.9,78.2-6.9"/>
					<path class="st28" d="M451.1,343.5c0,0,38.9,31.9,78.2-6.9"/>
				</g>
			</g>
		</g>
	</g>
	<g id="Layer_2_1_">
	</g>
</g>
</svg>
